<?xml version="1.0" encoding="UTF-8" standalone="no"?>
<!-- Created with Inkscape (http://www.inkscape.org/) -->
<svg
   xmlns:dc="http://purl.org/dc/elements/1.1/"
   xmlns:cc="http://web.resource.org/cc/"
   xmlns:rdf="http://www.w3.org/1999/02/22-rdf-syntax-ns#"
   xmlns:svg="http://www.w3.org/2000/svg"
   xmlns="http://www.w3.org/2000/svg"
   xmlns:sodipodi="http://sodipodi.sourceforge.net/DTD/sodipodi-0.dtd"
   xmlns:inkscape="http://www.inkscape.org/namespaces/inkscape"
   id="svg2"
   sodipodi:version="0.32"
   inkscape:version="0.45.1"
   width="300"
   height="300"
   version="1.0"
   sodipodi:docbase="/home/pterjan"
   sodipodi:docname="cacajava.svg"
   inkscape:output_extension="org.inkscape.output.svg.inkscape">
  <metadata
     id="metadata7">
    <rdf:RDF>
      <cc:Work
         rdf:about="">
        <dc:format>image/svg+xml</dc:format>
        <dc:type
           rdf:resource="http://purl.org/dc/dcmitype/StillImage" />
      </cc:Work>
    </rdf:RDF>
  </metadata>
  <defs
     id="defs5" />
  <sodipodi:namedview
     inkscape:window-height="729"
     inkscape:window-width="1024"
     inkscape:pageshadow="2"
     inkscape:pageopacity="0.0"
     guidetolerance="10.0"
     gridtolerance="10.0"
     objecttolerance="10.0"
     borderopacity="1.0"
     bordercolor="#666666"
     pagecolor="#ffffff"
     id="base"
     inkscape:zoom="1.28"
     inkscape:cx="150"
     inkscape:cy="148.90625"
     inkscape:window-x="0"
     inkscape:window-y="0"
     inkscape:current-layer="svg2" />
  <path
     id="path2167"
     d="M 126.62499,139.1515 C 116.76144,140.68567 108.10355,143.8008 107.20657,146.13828 C 106.91165,146.90684 107.58283,148.44813 108.69808,149.56338 L 110.7258,151.5911 L 114.4254,149.2907 C 117.73313,147.23395 119.60516,146.95311 132.09953,146.63931 C 139.78552,146.44628 149.28536,146.80637 153.21029,147.43953 C 159.46449,148.44844 160.79631,148.37623 163.98575,146.8553 C 165.98733,145.90081 167.62499,144.76578 167.62499,144.33301 C 167.62499,143.23182 158.45655,140.71394 150.12499,139.52708 C 143.30339,138.55532 131.6549,138.36915 126.62499,139.1515 z M 122.02892,160.51036 C 107.94182,161.99631 99.92887,165.57425 102.29016,169.32411 C 103.74865,171.64027 106.74658,172.0244 107.85846,170.03759 C 108.36884,169.12559 109.95315,167.93582 111.37915,167.39366 C 115.17542,165.95032 147.05017,166.04884 157.03801,167.53479 C 163.78411,168.53844 166.19168,168.55312 168.27629,167.60331 C 170.07408,166.78418 170.60149,166.06679 169.91248,165.37778 C 168.47334,163.93864 157.00159,161.78273 144.20131,160.54584 C 132.38763,159.40429 132.51286,159.40449 122.02892,160.51036 z M 195.80403,169.5139 C 202.36585,175.13844 204.62499,179.16949 204.62499,185.25336 C 204.62499,190.37153 203.72018,191.86211 198.12499,195.96139 C 196.21023,197.36423 196.2572,197.42804 199.22711,197.45849 C 202.91292,197.49627 208.59514,193.91979 210.34568,190.46027 C 213.76753,183.6978 209.47759,174.97543 199.8547,169.12983 C 191.94441,164.32458 189.96853,164.51193 195.80403,169.5139 z M 111.12499,181.09496 C 108.37499,181.30574 102.53349,181.97075 98.14387,182.57275 C 84.709409,184.41519 83.182359,186.73584 92.690899,190.85958 C 100.34801,194.18037 102.72633,194.36474 100.07202,191.43175 C 97.84426,188.97011 98.95891,186.41503 102.71963,185.36271 C 109.04261,183.59343 153.85855,184.76111 169.51738,187.10313 C 172.38722,187.53236 173.69254,187.4086 173.28309,186.7461 C 172.58551,185.6174 157.40563,182.77574 148.12499,182.03653 C 138.11694,181.23938 116.43826,180.68771 111.12499,181.09496 z "
     style="fill:#2937da"
     sodipodi:nodetypes="cscccsssssccsssssssccsssssccsssssssc" />
  <path
     id="path2165"
     d="M 164,111.24613 C 164,108.26356 163.03376,105.97625 159.96136,101.68568 C 151.45906,89.812362 150.15787,83.089364 154.62657,74.121849 C 157.62847,68.09782 167.3434,60.181391 175,57.520109 L 179.5,55.955998 L 175.5,59.177511 C 169.11718,64.3181 164.15324,69.779302 161.96525,74.068107 C 159.34949,79.195433 160.2778,82.971695 166.47263,92.403496 C 171.82734,100.55619 172.44137,105.57691 168.75,111.02502 C 165.46658,115.87104 164,115.93931 164,111.24613 z M 136.37051,100.62635 C 130.33675,93.856611 126,85.48627 126,80.610249 C 126,76.080371 129.2246,69.53422 133.38511,65.617996 C 135.0983,64.005398 141.27785,58.722506 147.11746,53.878234 C 161.70015,41.781079 167.40797,35.313818 170.20951,27.713713 L 172.5,21.5 L 172.8147,25.897423 C 173.05543,29.261174 172.36726,31.846866 169.88712,36.897423 C 166.68898,43.410099 163.64135,46.778645 144.63103,64.812929 C 140.97101,68.28504 137.08174,72.879613 135.98822,75.023091 C 132.36216,82.130748 133.87639,92.867656 139.68955,101.26811 C 143.71306,107.08239 141.79396,106.71131 136.37051,100.62635 z "
     style="fill:#f30d09"
     sodipodi:nodetypes="csscccsssccssscccssssc" />
  <path
     style="fill:none;stroke:none"
     d="M 0,149.5 L 0,0 L 150,0 L 300,0 L 300,149.5 L 300,299 L 150,299 L 0,299 L 0,149.5 z M 299,149.5 L 299,1 L 150,1 L 1,1 L 1,149.5 L 1,298 L 150,298 L 299,298 L 299,149.5 z M 206.5,144 C 206.83992,143.45 207.56803,143 208.11803,143 C 208.66803,143 208.83992,143.45 208.5,144 C 208.16008,144.55 207.43197,145 206.88197,145 C 206.33197,145 206.16008,144.55 206.5,144 z M 122.5,131 C 122.16008,130.45 122.80852,130 123.94098,130 C 125.07344,130 126,130.45 126,131 C 126,131.55 125.35156,132 124.55902,132 C 123.76648,132 122.83992,131.55 122.5,131 z "
     id="path2163" />
  <text
     xml:space="preserve"
     style="font-size:72px;font-style:normal;font-weight:normal;line-height:125%;fill:#f30d09;fill-opacity:1;stroke:none;stroke-width:1px;stroke-linecap:butt;stroke-linejoin:miter;stroke-opacity:1;font-family:Bitstream Vera Sans Mono;font-stretch:normal;font-variant:normal;text-anchor:start;text-align:start;writing-mode:lr"
     x="53.90625"
     y="274.21875"
     id="text3176"
     sodipodi:linespacing="125%"><tspan
       sodipodi:role="line"
       id="tspan3178"
       x="53.90625"
       y="274.21875"
       style="font-size:72px;font-style:normal;font-variant:normal;font-weight:normal;font-stretch:normal;text-align:start;line-height:125%;writing-mode:lr;text-anchor:start;font-family:Bitstream Vera Sans Mono;fill:#f30d09;fill-opacity:1">Caca</tspan></text>
</svg>
